<?xml version="1.0" encoding="utf-8"?>
<!-- Generator: Adobe Illustrator 16.0.0, SVG Export Plug-In . SVG Version: 6.00 Build 0)  -->
<!DOCTYPE svg PUBLIC "-//W3C//DTD SVG 1.1//EN" "http://www.w3.org/Graphics/SVG/1.1/DTD/svg11.dtd">
<svg version="1.1" id="Layer_1" xmlns="http://www.w3.org/2000/svg" xmlns:xlink="http://www.w3.org/1999/xlink" x="0px" y="0px"
	 width="600px" height="600px" viewBox="0 0 600 600" enable-background="new 0 0 600 600" xml:space="preserve">
<g>
	<circle fill-rule="evenodd" clip-rule="evenodd" fill="#FFFFFF" cx="298.668" cy="299.562" r="250"/>
	<polygon fill-rule="evenodd" clip-rule="evenodd" fill="#1948AE" points="233.427,419.083 298.668,419.083 166.944,189.686 
		101.703,189.686 99.583,189.686 99.583,248.238 135.325,248.238 233.427,419.083 	"/>
	<polygon fill-rule="evenodd" clip-rule="evenodd" fill="#1948AE" points="334.41,419.083 399.651,419.083 267.929,189.686 
		202.686,189.686 200.566,189.686 200.566,248.238 236.309,248.238 334.41,419.083 	"/>
	<polygon fill-rule="evenodd" clip-rule="evenodd" fill="#1948AE" points="436.261,419.083 501.502,419.083 369.779,189.686 
		304.538,189.686 302.415,189.686 302.415,248.238 338.159,248.238 436.261,419.083 	"/>
	<path fill-rule="evenodd" clip-rule="evenodd" fill="#1948AE" d="M132.849,299.562c18.966,0,34.347,15.385,34.347,34.349
		s-15.381,34.349-34.347,34.349c-18.968,0-34.349-15.385-34.349-34.349S113.881,299.562,132.849,299.562L132.849,299.562z"/>
	<path fill-rule="evenodd" clip-rule="evenodd" fill="#00963C" d="M300.001,0C465.659,0,600,134.343,600,300
		c0,165.659-134.341,300-299.999,300C134.343,600,0,465.659,0,300C0,134.343,134.343,0,300.001,0L300.001,0z M300.001,57.08
		c134.141,0,242.917,108.782,242.917,242.92c0,134.143-108.776,242.919-242.917,242.919c-134.14,0-242.92-108.776-242.92-242.919
		C57.081,165.862,165.862,57.08,300.001,57.08L300.001,57.08z"/>
</g>
</svg>
