<?xml version="1.0" standalone="no"?>
<!DOCTYPE svg PUBLIC "-//W3C//DTD SVG 20010904//EN"
 "http://www.w3.org/TR/2001/REC-SVG-20010904/DTD/svg10.dtd">
<svg version="1.0" xmlns="http://www.w3.org/2000/svg"
 width="220.000000pt" height="220.000000pt" viewBox="0 0 220.000000 220.000000"
 preserveAspectRatio="xMidYMid meet">
<metadata>
Created by potrace 1.14, written by Peter Selinger 2001-2017
</metadata>
<g transform="translate(0.000000,220.000000) scale(0.100000,-0.100000)"
fill="#000000" stroke="none">
<path d="M1120 2120 l0 -50 -50 0 c-47 0 -50 -2 -50 -25 0 -23 3 -25 50 -25
l51 0 -3 -77 -3 -78 -42 -7 c-84 -14 -182 -79 -235 -156 -34 -49 -68 -146 -68
-193 l0 -29 386 0 386 0 -7 47 c-25 168 -148 299 -312 334 l-53 11 0 74 0 74
55 0 c52 0 55 1 55 24 0 23 -4 25 -52 28 l-53 3 -3 48 c-3 42 -5 47 -28 47
-22 0 -24 -4 -24 -50z"/>
<path d="M767 1403 c-4 -3 -7 -89 -7 -189 l0 -183 -47 -7 c-108 -16 -222 -94
-278 -190 -48 -82 -56 -153 -53 -497 l3 -312 37 -3 37 -3 3 348 c3 342 3 349
27 401 31 69 114 145 182 167 110 37 250 -2 328 -91 73 -83 75 -96 79 -482 l3
-342 382 2 382 3 3 300 c3 328 -5 410 -44 489 -45 91 -136 168 -231 196 l-43
13 0 194 0 193 -35 0 -35 0 0 -188 0 -188 -61 -12 c-33 -6 -80 -21 -104 -32
-55 -27 -127 -90 -156 -137 l-23 -36 -15 24 c-38 58 -98 111 -164 144 -38 19
-76 35 -83 35 -11 0 -14 37 -14 195 l0 195 -33 0 c-19 0 -37 -3 -40 -7z m726
-754 c42 -19 47 -47 47 -254 l0 -195 -75 0 -75 0 0 209 0 210 26 20 c30 24 43
26 77 10z"/>
<path d="M1110 1331 c-5 -11 -10 -78 -10 -150 l0 -131 50 0 50 0 0 138 c0 94
-4 142 -12 150 -19 19 -66 15 -78 -7z"/>
<path d="M734 648 c-39 -18 -44 -50 -44 -254 l0 -195 78 3 77 3 0 203 0 204
-28 24 c-30 26 -50 29 -83 12z"/>
</g>
</svg>
