<?xml version="1.0" encoding="utf-8"?>
<!-- Generator: Adobe Illustrator 16.0.0, SVG Export Plug-In . SVG Version: 6.00 Build 0)  -->
<!DOCTYPE svg PUBLIC "-//W3C//DTD SVG 1.1//EN" "http://www.w3.org/Graphics/SVG/1.1/DTD/svg11.dtd" [
	<!ENTITY ns_flows "http://ns.adobe.com/Flows/1.0/">
	<!ENTITY ns_extend "http://ns.adobe.com/Extensibility/1.0/">
	<!ENTITY ns_ai "http://ns.adobe.com/AdobeIllustrator/10.0/">
	<!ENTITY ns_graphs "http://ns.adobe.com/Graphs/1.0/">
]>
<svg version="1.1" id="Layer_1" xmlns:x="&ns_extend;" xmlns:i="&ns_ai;" xmlns:graph="&ns_graphs;"
	 xmlns="http://www.w3.org/2000/svg" xmlns:xlink="http://www.w3.org/1999/xlink" xmlns:a="http://ns.adobe.com/AdobeSVGViewerExtensions/3.0/"
	 x="0px" y="0px" width="864px" height="864px" viewBox="0 0 864 864" enable-background="new 0 0 864 864" xml:space="preserve">
<path fill="#594A42" d="M693.11,409.744c0,21.482,0,42.966,0,64.449c-2.176,12.339-3.852,24.792-6.607,37
	c-24.334,107.805-85.051,188.181-182.628,240.19c-12.813,6.83-5.83,17.112-6.601,25.769c-0.212,2.384,7.109,6.883,11.564,7.957
	c11.761,2.833,23.892,4.089,35.786,6.422c8.472,1.661,19.77,2.073,17.564,14.801c-2.175,12.541-12.455,9.72-21.375,8.158
	c-9.17-1.604-18.401-2.854-30.141-4.645c6.459,11.801,11.016,20.969,16.365,29.649c4.908,7.96,4.521,14.827-2.058,21.395
	c-3.737,0-7.472,0-11.209,0c-9.077-14.927-18.152-29.854-27.841-45.787c-9.847,15.987-19.023,30.888-28.202,45.787
	c-3.736,0-7.472,0-11.208,0c-7.023-7.224-6.211-14.493-1.128-22.643c5.305-8.501,9.613-17.624,15.577-28.754
	c-12.214,2.059-21.752,3.658-31.287,5.272c-8.462,1.431-17.893,3.596-19.972-8.351c-2.088-12.001,7.822-13.082,16.058-14.656
	c13.142-2.514,26.351-4.667,39.755-7.013c0-7.062,0-12.91,0-17.01c-35.719,3.18-70.806,8.597-105.922,8.79
	c-35.547,0.195-71.122-4.778-107.431-7.543c0,3.506,0,9.279,0,15.71c14.865,2.683,29.011,5.275,43.173,7.778
	c8.153,1.44,14.997,4.711,13.019,14.399c-1.981,9.699-9.854,9.757-17.758,8.406c-10.37-1.772-20.735-3.565-34.183-5.88
	c5.951,10.84,9.95,19.161,14.903,26.868c5.257,8.176,6.49,16.084,1.463,24.624c-4.67,0-9.341,0-14.011,0
	c-8.68-15.042-17.36-30.084-27.065-46.904c-9.497,17.017-17.836,31.961-26.175,46.904c-4.67,0-9.341,0-14.011,0
	c-5.416-7.701-5.076-15.038,0.072-23.043c5.32-8.272,9.542-17.248,15.647-28.502c-14.438,2.487-25.363,5.494-36.355,5.764
	c-5.086,0.126-13.118-3.921-14.858-8.127c-3.292-7.955,2.821-12.641,10.902-14.082c12.853-2.29,25.61-5.896,38.55-6.724
	c13.514-0.864,17.159-6.615,16.47-19.405c-0.471-8.737-2.972-13.283-11.112-16.641c-8.977-3.704-17.449-8.918-25.598-14.295
	C59.61,652.955,1.791,509.91,33.02,360.314c17.628-84.446,55.065-160.148,101.429-231.987c5.258-8.146,10.562-16.265,16.014-24.66
	c-26.061-21.743-32.343-48.96-26.904-82.059c26.295,13.486,50.545,26.42,75.323,38.248c5.499,2.625,13.489,3.367,19.269,1.565
	c89.413-27.879,179.306-28.533,269.019-3.291c17.296,4.867,30.401,4.332,45.472-4.566c19.466-11.493,40.183-20.868,64.67-33.353
	c-1.992,18.746-1.197,34.085-5.744,47.633c-4.536,13.519-14.423,25.24-22.593,38.794c1.236,1.829,3.592,5.273,5.901,8.746
	c44.422,66.779,82.103,136.884,102.539,214.977C684.23,356.408,687.966,383.26,693.11,409.744z M417.204,212.587
	c-7.605-16.078-15.017-32.622-23.398-48.659c-1.505-2.88-6.973-5.082-10.676-5.183c-16.208-0.442-32.452-0.294-48.655,0.355
	c-3.721,0.149-9.209,2.157-10.676,4.978c-8.345,16.048-15.718,32.601-23.308,48.741c40.836,36.714,46.821,76.516,16.796,107.895
	c-25.642,26.798-69.018,27.205-95.559,0.895c-25.329-25.108-26.735-66.974-3.02-89.92c10.23,15.178,19.505,19.036,30.792,12.808
	c11.716-6.468,13.346-16.929,4.894-36.187c10.5,0,20.507,0,31.234,0c5.728-19.438,11.176-37.929,16.996-57.689
	c-23.744-7.919-45.596-15.903-67.884-22.396c-14.778-4.304-29.892-3.296-42.783,6.458c-28.016,21.2-50.719,46.803-63.359,80.167
	c-25.322,66.835,11.529,137.077,81.142,153.311c48.498,11.31,89.989-5.312,127.287-35.391c8.564-6.905,16.512-14.577,25.006-22.13
	c3.435,3.214,6.179,5.688,8.821,8.27c25.167,24.598,53.768,43.131,88.76,50.448c79.092,16.54,148.296-47.888,135.898-127.334
	c-7.448-47.734-36.264-82.071-74.4-108.949c-7.266-5.12-19.268-7.928-27.796-6.026c-26.433,5.895-52.246,14.573-78.902,22.346
	c6.693,21.907,12.336,40.374,18.011,58.951c11.363,0,20.971,0,31.036,0c-8.462,19.143-7.582,28.6,3.638,35.217
	c3.773,2.225,9.702,4.519,13.005,3.062c7.466-3.292,13.908-8.903,20.938-13.687c22.68,27.227,19.583,67.554-7.978,91.694
	c-27.121,23.757-69.019,21.517-93.52-4.998C371.062,288.809,377.156,250.534,417.204,212.587z M608.427,645.247
	c54.143-93.75,88.352-190.104,53.787-299.967C565.951,402.594,535.562,571.93,608.427,645.247z M57.578,346.288
	c-36.294,64.824-4.35,240.491,54.156,297.816C191.059,534.581,141.666,414.155,57.578,346.288z M285.883,491.784
	c5.28,18.789,17.098,32.089,29.949,31.337c12.767-0.747,25.229-16.512,28.454-33.596c-10.207-12.918-19.071-24.136-25.804-32.657
	C308.542,467.515,297.85,478.967,285.883,491.784z M292.562,596.883c4.5,19.06,17.42,33.412,30.963,32.214
	c12.679-1.121,25.458-17.751,26.887-30.979c-11.781-14.044-21.449-25.567-29.765-35.479
	C312.542,572.52,303.141,583.981,292.562,596.883z M243.999,563.015c-7.631,9.543-16.43,20.547-26.139,32.688
	c5.76,20.813,17.627,34.265,30.974,33.452c12.749-0.776,25.141-16.286,27.444-30.609
	C263.759,584.766,253.243,573.188,243.999,563.015z M366.656,598.627c4.774,11.237,9.361,27.995,29.043,30.313
	c12.762,1.504,24.422-12.904,29.667-31.952c-10.712-13.033-20.202-24.579-28.161-34.263
	C389.057,572.302,379.127,583.972,366.656,598.627z M430.813,507.722c-8.152,9.76-15.875,18.681-23.146,27.957
	c-1.66,2.116-2.867,5.67-2.388,8.205c2.846,15.061,16.777,31.377,27.764,31.917c17.406,0.856,23.086-12.983,29.642-25.266
	c1.422-2.666,1.995-5.785,3.265-9.619C445.703,537.227,436.506,523.195,430.813,507.722z M277.889,507.122
	c-8.431,11.18-16.909,22.419-25.902,34.344c7.737,23.551,19.215,35.979,32.709,34.498c12.381-1.361,24.617-17.203,26.849-35.433
	C292.425,537.041,283.779,522.521,277.889,507.122z M441.132,599.017c0.355,0.854,1.818,5.696,4.266,9.974
	c6.345,11.091,13.233,22.11,28.692,19.665c10.14-1.604,25.342-20.841,25.87-32.182c0.094-1.994-0.771-4.517-2.084-6.011
	c-8.656-9.849-17.559-19.482-24.501-27.118C464.541,573.119,453.799,585.002,441.132,599.017z M361.967,492.678
	c5.095,11.266,9.437,28.391,29.409,30.172c12.654,1.131,25.123-14.888,29.265-32.987c-10.006-12.828-18.846-24.162-26.01-33.347
	C385.407,466.728,374.884,478.378,361.967,492.678z M354.545,507.357c-7.844,9.606-15.623,18.534-22.598,28.052
	c-1.981,2.703-3.234,7.785-2.061,10.642c5.465,13.293,10.879,28.504,27.813,29.616c16.858,1.106,22.721-13.497,28.985-25.998
	c1.17-2.334,1.688-4.994,2.884-8.655C369.64,537.164,360.075,523.507,354.545,507.357z M311.873,649.346
	c-10.072-11.568-19.138-21.981-26.562-30.509c-9.675,9.841-20.035,20.379-31.572,32.114c3.759,17.006,15.973,31.381,28.644,31.498
	C295.434,682.568,308.075,667.602,311.873,649.346z M464.555,651.702c-12.437-12.779-22.658-23.283-31.93-32.812
	c-7.67,8.669-16.906,19.108-27.077,30.606c5.489,19.679,16.955,33.928,29.655,32.689
	C454.992,680.258,459.452,663.418,464.555,651.702z M358.894,619.044c-8.657,9.188-18.567,19.708-29.333,31.136
	c5.528,19.868,17.393,33.03,30.51,32.216c12.51-0.776,24.792-16.085,27.847-32.231C377.011,638.47,367.444,628.211,358.894,619.044z
	 M177.332,652.097c6.236,19.122,17.458,31.114,30.118,30.291c12.994-0.846,25.765-17.242,28.299-34.376
	c-9.502-11.327-17.943-21.388-24.289-28.953C201.072,629.114,190.146,639.69,177.332,652.097z M481.521,648.707
	c6.092,21.012,17.787,34.328,30.897,33.7c12.724-0.609,25.078-15.821,27.607-30.397c-12.908-12.759-23.906-23.628-33.601-33.209
	C499.517,627.096,491.365,636.886,481.521,648.707z M507.365,507.081c-9.957,12.8-18.071,23.232-28.14,36.175
	c6.071,8.582,12.227,19.567,20.621,28.435c6.843,7.231,17.181,6.554,23.985-0.544c4.704-4.91,10.463-14.523,8.572-19.004
	C525.808,536.521,516.089,522.218,507.365,507.081z M466.34,466.982c-10.334,8.273-19.213,15.38-29.714,23.788
	c3.8,6.66,7.305,14.786,12.545,21.574c10.264,13.297,22.169,14.205,33.415,3.682c14.698-13.752,15.026-20.793,1.152-33.928
	C478.017,476.681,471.843,471.738,466.34,466.982z M202.945,519.223c-4.521,7.85-8.967,17.062-14.784,25.309
	c-8.218,11.649-3.823,19.854,5.838,27.061c9.877,7.368,19.931,6.15,27.469-2.815c6.57-7.815,11.118-17.332,15.188-23.887
	C224.372,535.536,214.632,528.12,202.945,519.223z M326.092,431.898c3.391,21.6,16.815,38.052,29.604,38.187
	c12.856,0.136,25.843-15.561,30.768-38.187C366.253,431.898,346.351,431.898,326.092,431.898z M249.655,470.665
	c-1.743-1.53-3.486-3.062-5.229-4.592c-6.845,8.823-13.378,17.911-20.61,26.404c-10.42,12.24-9.714,18.492,3.958,27.099
	c8.631,5.435,17.729,5.108,24.071-2.302c7.539-8.81,13.086-19.328,19.126-28.54C262.283,481.369,255.968,476.018,249.655,470.665z
	 M385.693,359.598c-4.688-3.735-7.826-6.406-11.136-8.842c-18.152-13.361-23.064-12.904-37.32,4.179
	c-1.663,1.992-2.916,6.44-1.839,8.257c6.75,11.387,14.213,22.349,23.399,36.462C369.116,384.288,377.255,372.165,385.693,359.598z
	 M511.919,597.93c7.358,9.246,13.93,20.397,23.232,28.354c8.762,7.495,22.105,1.943,20.342-6.967
	c-2.883-14.562-7.672-28.746-11.558-42.735C533.054,583.836,524.05,589.842,511.919,597.93z M173.841,576.654
	c-3.501,11.995-7.42,23.845-10.251,35.948c-1.029,4.398-0.493,13.026,1.105,13.48c5.714,1.624,13.376,2.729,18.143,0.107
	c11.835-6.515,17.884-17.985,20.199-30.057C193.283,589.627,184.572,583.814,173.841,576.654z M404.383,434.845
	c3.624,16.48,8.376,31.396,24.679,34.046c6.997,1.139,15.127-4.692,22.741-7.356c-0.126-2.008-0.253-4.016-0.379-6.023
	C435.745,448.622,420.065,441.732,404.383,434.845z M308.252,435.896c-16.65,8.201-31.304,15.421-47.1,23.201
	C281.655,477.521,300.515,467.951,308.252,435.896z"/>
<path fill-rule="evenodd" clip-rule="evenodd" fill="#3C2415" d="M608.427,645.247c-72.865-73.317-42.476-242.653,53.787-299.967
	C696.778,455.143,662.569,551.497,608.427,645.247z"/>
<path fill-rule="evenodd" clip-rule="evenodd" fill="#3C2415" d="M57.578,346.288c84.088,67.867,133.481,188.293,54.156,297.816
	C53.229,586.778,21.284,411.112,57.578,346.288z"/>
<path fill-rule="evenodd" clip-rule="evenodd" fill="#C2B59B" d="M285.883,491.784c11.967-12.817,22.659-24.27,32.6-34.916
	c6.733,8.521,15.597,19.739,25.804,32.657c-3.225,17.084-15.687,32.849-28.454,33.596
	C302.981,523.873,291.164,510.573,285.883,491.784z"/>
<path fill-rule="evenodd" clip-rule="evenodd" fill="#C2B59B" d="M292.562,596.883c10.58-12.901,19.98-24.363,28.086-34.244
	c8.316,9.912,17.984,21.436,29.765,35.479c-1.429,13.228-14.208,29.857-26.887,30.979
	C309.982,630.295,297.062,615.942,292.562,596.883z"/>
<path fill-rule="evenodd" clip-rule="evenodd" fill="#C2B59B" d="M243.999,563.015c9.244,10.174,19.76,21.751,32.279,35.531
	c-2.303,14.323-14.695,29.833-27.444,30.609c-13.347,0.812-25.214-12.639-30.974-33.452
	C227.569,583.562,236.368,572.558,243.999,563.015z"/>
<path fill-rule="evenodd" clip-rule="evenodd" fill="#C2B59B" d="M366.656,598.627c12.472-14.655,22.401-26.325,30.55-35.901
	c7.959,9.684,17.449,21.229,28.161,34.263c-5.246,19.048-16.906,33.456-29.667,31.952
	C376.017,626.622,371.43,609.864,366.656,598.627z"/>
<path fill-rule="evenodd" clip-rule="evenodd" fill="#C2B59B" d="M430.813,507.722c5.692,15.474,14.89,29.505,35.137,33.194
	c-1.27,3.834-1.843,6.953-3.265,9.619c-6.556,12.282-12.235,26.122-29.642,25.266c-10.987-0.54-24.918-16.856-27.764-31.917
	c-0.479-2.535,0.728-6.089,2.388-8.205C414.938,526.402,422.662,517.481,430.813,507.722z"/>
<path fill-rule="evenodd" clip-rule="evenodd" fill="#C2B59B" d="M277.889,507.122c5.89,15.399,14.536,29.919,33.656,33.409
	c-2.231,18.229-14.468,34.071-26.849,35.433c-13.494,1.481-24.972-10.947-32.709-34.498
	C260.98,529.541,269.458,518.302,277.889,507.122z"/>
<path fill-rule="evenodd" clip-rule="evenodd" fill="#C2B59B" d="M441.132,599.017c12.667-14.015,23.409-25.897,32.243-35.672
	c6.942,7.636,15.845,17.27,24.501,27.118c1.313,1.494,2.178,4.017,2.084,6.011c-0.528,11.341-15.73,30.578-25.87,32.182
	c-15.459,2.445-22.348-8.574-28.692-19.665C442.95,604.713,441.487,599.871,441.132,599.017z"/>
<path fill-rule="evenodd" clip-rule="evenodd" fill="#C2B59B" d="M361.967,492.678c12.917-14.3,23.44-25.95,32.664-36.162
	c7.164,9.185,16.004,20.519,26.01,33.347c-4.143,18.1-16.611,34.118-29.265,32.987C371.403,521.068,367.062,503.943,361.967,492.678
	z"/>
<path fill-rule="evenodd" clip-rule="evenodd" fill="#C2B59B" d="M354.545,507.357c5.529,16.149,15.094,29.807,35.024,33.656
	c-1.196,3.661-1.714,6.321-2.884,8.655c-6.264,12.501-12.127,27.104-28.985,25.998c-16.935-1.112-22.349-16.323-27.813-29.616
	c-1.174-2.856,0.079-7.938,2.061-10.642C338.923,525.892,346.701,516.964,354.545,507.357z"/>
<path fill-rule="evenodd" clip-rule="evenodd" fill="#C2B59B" d="M311.873,649.346c-3.798,18.256-16.439,33.223-29.49,33.104
	c-12.671-0.117-24.885-14.492-28.644-31.498c11.537-11.735,21.897-22.273,31.572-32.114
	C292.735,627.364,301.801,637.777,311.873,649.346z"/>
<path fill-rule="evenodd" clip-rule="evenodd" fill="#C2B59B" d="M464.555,651.702c-5.103,11.716-9.562,28.556-29.352,30.484
	c-12.7,1.238-24.166-13.011-29.655-32.689c10.171-11.498,19.407-21.938,27.077-30.606
	C441.896,628.419,452.118,638.923,464.555,651.702z"/>
<path fill-rule="evenodd" clip-rule="evenodd" fill="#C2B59B" d="M358.894,619.044c8.55,9.167,18.117,19.426,29.023,31.12
	c-3.054,16.146-15.337,31.455-27.847,32.231c-13.117,0.814-24.982-12.348-30.51-32.216
	C340.327,638.752,350.237,628.232,358.894,619.044z"/>
<path fill-rule="evenodd" clip-rule="evenodd" fill="#C2B59B" d="M177.332,652.097c12.815-12.406,23.74-22.982,34.128-33.038
	c6.346,7.565,14.787,17.626,24.289,28.953c-2.534,17.134-15.305,33.53-28.299,34.376
	C194.789,683.211,183.568,671.219,177.332,652.097z"/>
<path fill-rule="evenodd" clip-rule="evenodd" fill="#C2B59B" d="M481.521,648.707c9.845-11.821,17.996-21.611,24.904-29.906
	c9.694,9.581,20.692,20.45,33.601,33.209c-2.529,14.576-14.884,29.788-27.607,30.397
	C499.308,683.035,487.612,669.719,481.521,648.707z"/>
<path fill-rule="evenodd" clip-rule="evenodd" fill="#C2B59B" d="M507.365,507.081c8.724,15.137,18.442,29.439,25.039,45.062
	c1.891,4.48-3.868,14.094-8.572,19.004c-6.805,7.098-17.143,7.775-23.985,0.544c-8.395-8.867-14.55-19.853-20.621-28.435
	C489.294,530.313,497.408,519.881,507.365,507.081z"/>
<path fill-rule="evenodd" clip-rule="evenodd" fill="#C2B59B" d="M466.34,466.982c5.503,4.756,11.677,9.698,17.398,15.116
	c13.874,13.135,13.546,20.176-1.152,33.928c-11.246,10.523-23.151,9.615-33.415-3.682c-5.24-6.788-8.745-14.914-12.545-21.574
	C447.127,482.362,456.006,475.256,466.34,466.982z"/>
<path fill-rule="evenodd" clip-rule="evenodd" fill="#C2B59B" d="M202.945,519.223c11.688,8.897,21.427,16.313,33.712,25.667
	c-4.07,6.555-8.618,16.071-15.188,23.887c-7.538,8.966-17.591,10.184-27.469,2.815c-9.661-7.206-14.056-15.411-5.838-27.061
	C193.978,536.285,198.424,527.072,202.945,519.223z"/>
<path fill-rule="evenodd" clip-rule="evenodd" fill="#C2B59B" d="M326.092,431.898c20.259,0,40.162,0,60.372,0
	c-4.924,22.626-17.912,38.323-30.768,38.187C342.907,469.95,329.482,453.498,326.092,431.898z"/>
<path fill-rule="evenodd" clip-rule="evenodd" fill="#C2B59B" d="M249.655,470.665c6.313,5.353,12.627,10.704,21.317,18.069
	c-6.041,9.212-11.587,19.73-19.126,28.54c-6.342,7.41-15.44,7.736-24.071,2.302c-13.673-8.606-14.379-14.858-3.958-27.099
	c7.231-8.493,13.765-17.581,20.61-26.404C246.169,467.604,247.912,469.135,249.655,470.665z"/>
<path fill-rule="evenodd" clip-rule="evenodd" fill="#FFF200" d="M385.693,359.598c-8.438,12.567-16.578,24.69-26.896,40.057
	c-9.186-14.114-16.65-25.076-23.399-36.462c-1.077-1.817,0.176-6.265,1.839-8.257c14.256-17.083,19.167-17.54,37.32-4.179
	C377.867,353.191,381.006,355.862,385.693,359.598z"/>
<path fill-rule="evenodd" clip-rule="evenodd" fill="#C2B59B" d="M511.919,597.93c12.131-8.088,21.135-14.094,32.017-21.348
	c3.886,13.989,8.675,28.174,11.558,42.735c1.764,8.91-11.58,14.462-20.342,6.967C525.849,618.327,519.277,607.176,511.919,597.93z"
	/>
<path fill-rule="evenodd" clip-rule="evenodd" fill="#C2B59B" d="M173.841,576.654c10.731,7.16,19.441,12.973,29.197,19.479
	c-2.315,12.071-8.364,23.542-20.199,30.057c-4.767,2.621-12.429,1.517-18.143-0.107c-1.598-0.454-2.134-9.082-1.105-13.48
	C166.421,600.499,170.34,588.649,173.841,576.654z"/>
<path fill-rule="evenodd" clip-rule="evenodd" fill="#C2B59B" d="M404.383,434.845c15.682,6.888,31.362,13.777,47.042,20.666
	c0.126,2.008,0.253,4.016,0.379,6.023c-7.614,2.664-15.744,8.495-22.741,7.356C412.76,466.24,408.007,451.325,404.383,434.845z"/>
<path fill-rule="evenodd" clip-rule="evenodd" fill="#C2B59B" d="M308.252,435.896c-7.737,32.056-26.597,41.625-47.1,23.201
	C276.949,451.316,291.603,444.097,308.252,435.896z"/>
</svg>
