<?xml version="1.0" encoding="utf-8"?>
<!-- Generator: Adobe Illustrator 15.0.0, SVG Export Plug-In . SVG Version: 6.00 Build 0)  -->
<!DOCTYPE svg PUBLIC "-//W3C//DTD SVG 1.1//EN" "http://www.w3.org/Graphics/SVG/1.1/DTD/svg11.dtd">
<svg version="1.1" id="Layer_1" xmlns="http://www.w3.org/2000/svg" xmlns:xlink="http://www.w3.org/1999/xlink" x="0px" y="0px"
	 width="180px" height="180px" viewBox="0 0 180 180" enable-background="new 0 0 180 180" xml:space="preserve">
<g>
	<g>
		<circle fill="#D6223E" cx="90" cy="76.256" r="12.792"/>
		<path fill="#FF7D00" d="M90,46.801c-16.268,0-29.456,13.188-29.456,29.456c0,4.584,1.049,8.923,2.917,12.792h17.536
			c-4.019-2.834-6.65-7.501-6.65-12.792c0-8.361,6.561-15.171,14.812-15.611v-0.043h34.169V46.801H90z M99.004,63.464
			c4.018,2.833,6.649,7.501,6.649,12.792c0,8.503-6.784,15.407-15.232,15.632v0.021H56.673v13.802H90
			c16.268,0,29.456-13.188,29.456-29.456c0-4.584-1.049-8.924-2.917-12.792H99.004z"/>
	</g>
	<g>
		<path fill="#4C2512" d="M5.225,118.05h11.961v2.923H9.526l4.466,5.326l-4.927,6.116h8.485v2.911H5v-3.229l4.631-5.798
			l-4.406-5.138V118.05z"/>
		<path fill="#4C2512" d="M20.443,135.326V118.05h3.488v7.672l7.047-7.672h4.69l-6.506,6.729l6.859,10.547H31.51l-4.75-8.108
			l-2.828,2.888v5.221H20.443z"/>
		<path fill="#4C2512" d="M46.198,118.05l6.175,17.276h-3.781l-4.373-12.774l-4.231,12.774h-3.7l6.187-17.276H46.198z"/>
		<path fill="#4C2512" d="M69.938,135.326h-3.794l-1.51-3.924h-6.905l-1.427,3.924h-3.7l6.73-17.276h3.688L69.938,135.326z
			 M63.515,128.491l-2.38-6.411l-2.334,6.411H63.515z"/>
		<path fill="#4C2512" d="M72.018,118.05h6.904c1.368,0,2.388,0.057,3.059,0.171c0.673,0.113,1.273,0.351,1.804,0.713
			c0.529,0.361,0.972,0.843,1.325,1.444c0.354,0.601,0.531,1.274,0.531,2.021c0,0.809-0.218,1.551-0.654,2.228
			c-0.436,0.675-1.027,1.182-1.774,1.52c1.054,0.307,1.862,0.828,2.429,1.567c0.565,0.738,0.849,1.605,0.849,2.604
			c0,0.786-0.184,1.55-0.549,2.292c-0.365,0.743-0.864,1.336-1.496,1.781c-0.633,0.442-1.413,0.716-2.34,0.817
			c-0.581,0.063-1.984,0.103-4.207,0.118h-5.88V118.05z M75.505,120.925v3.996h2.286c1.359,0,2.204-0.02,2.534-0.06
			c0.598-0.07,1.066-0.276,1.409-0.619c0.342-0.342,0.513-0.792,0.513-1.35c0-0.533-0.147-0.968-0.443-1.301
			c-0.295-0.335-0.732-0.537-1.314-0.607c-0.345-0.04-1.339-0.06-2.98-0.06H75.505z M75.505,127.796v4.619h3.229
			c1.257,0,2.054-0.034,2.392-0.105c0.519-0.095,0.942-0.324,1.269-0.69c0.324-0.363,0.487-0.854,0.487-1.466
			c0-0.52-0.125-0.959-0.376-1.32c-0.253-0.361-0.615-0.625-1.09-0.791c-0.477-0.164-1.507-0.246-3.095-0.246H75.505z"/>
		<path fill="#4C2512" d="M89.652,135.326V118.05h12.812v2.923h-9.322v3.83h8.674v2.911h-8.674v4.701h9.65v2.911H89.652z"/>
		<path fill="#4C2512" d="M106.004,135.326V118.05h3.394l7.07,11.537V118.05h3.241v17.276h-3.5l-6.964-11.267v11.267H106.004z"/>
		<path fill="#4C2512" d="M123.51,135.326V118.05h3.487v17.276H123.51z"/>
		<path fill="#4C2512" d="M134.427,135.326v-14.354H129.3v-2.923h13.729v2.923h-5.113v14.354H134.427z"/>
		<path fill="#4C2512" d="M145.51,135.326V118.05h3.487v6.8h6.835v-6.8h3.489v17.276h-3.489v-7.555h-6.835v7.555H145.51z"/>
		<path fill="#4C2512" d="M162.674,118.05h11.961v2.923h-7.66l4.467,5.326l-4.927,6.116H175v2.911h-12.551v-3.229l4.633-5.798
			l-4.408-5.138V118.05z"/>
	</g>
</g>
</svg>
